<?xml version="1.0" encoding="UTF-8"?>
<svg id="_レイヤー_2" data-name="レイヤー 2" xmlns="http://www.w3.org/2000/svg" viewBox="0 0 258.94 373.78">
  <defs>
    <style>
      .cls-1 {
        fill: #dcdcdc;
      }

      .cls-1, .cls-2, .cls-3 {
        stroke: #5e5d5b;
        stroke-miterlimit: 10;
      }

      .cls-2 {
        fill: #fff;
      }

      .cls-3 {
        fill: #5e5d5b;
      }
    </style>
  </defs>
  <g id="_レイヤー_2-2" data-name=" レイヤー 2">
    <g id="_レイヤー_1-2" data-name=" レイヤー 1-2">
      <g>
        <path class="cls-3" d="M78.04,197.33l.75-1c-1.09-.19-.67.94-.75,1-18.61,14.55-57.25,59.61-76.5,78.25,20.62-45.6,40.07-91.74,62.5-136.5l-29-.5L169.29,1.83l-28.25,90.25c17.1,5.89,21.64,22.75,23.25,23.25,2.04.64,17.2-8.97,42-2,25.08,7.05,22,24.51,22.75,26.25.92,2.14,21.89,9.44,28,35.5,5.03,21.44-5.08,25.76-5.5,27.5-.51,2.11,5.86,20.7-4,42.5-5.98,13.22-14.24,19.98-29.25,19.25l-104,108,18.25-136.75c-12.01,18.41-13.58,26.7-38.25,24.75-15.53-1.23-23.93-9.77-27.75-24.75-5.02-19.68,2.27-22.88,11.5-38.25h0Z"/>
        <g>
          <g>
            <path class="cls-2" d="M139.79,109.83c2.62,2.81,12.96,27.26,14.5,27.5,2.87.45,21.94-19.17,55.25-4.25-11.41,1.05-17.46,6.62-22.25,8.25-3.78,1.29-14.91,2.69-20.25,4.75,45.54,12.08,56.96,62.89,39,102.5-9.01,19.86-55.38,68.17-71.25,89.75l16.25-116.75c-10.95-9.3-28.91-3.39-36.5,7.5-2.45,3.52-3.59,8.68-4.5,10-4.02,5.82-21.27,5.85-25.5-3.5-.49-1.07-2.65-9.96-2.5-11.5.21-2.2,2.83-6.81,4-9,6.4-9.98,45.44-67.99,47-72,1.43-3.68.16-8.42,1-13,.35-1.92,4.7-20.23,5.75-20.25h0Z"/>
            <g>
              <path class="cls-2" d="M202.29,168.33c29.25,8.83,44.67,48.57,27.75,74.25-2.08,2.51-.41-5.47-1-11-1.1-10.31-1.82-2.03-5,3.5-4.26,7.4-11.03,13.06-17.25,18.75l-.75-.75c20.09-26.13,20.97-61.19-3.75-84.75Z"/>
              <path class="cls-2" d="M192.29,147.33c20.19-2.25,42.97,10.5,48.75,30.75,4.39,15.38.29,5.83-2.5,2.5-10.42-12.43-24.9-11.52-30.25-14.25-1.81-.92-12.97-13.04-23-16.5-1.3-.82,5.77-2.36,7-2.5Z"/>
            </g>
          </g>
          <g>
            <path class="cls-2" d="M153.29,25.83c-6.66,17.06-33.26,104.3-37.25,111.25-3.85,6.71-81.15,94.67-93.75,110.25l-.25-1.25,56.5-115.5c-.13-3.05-18.19.27-18.5-2L153.29,25.83Z"/>
            <path class="cls-1" d="M78.04,197.33c.08-.06-.34-1.19.75-1l-.75,1Z"/>
          </g>
        </g>
      </g>
    </g>
  </g>
</svg>